<?xml version="1.0" encoding="UTF-8" standalone="no"?>
<!DOCTYPE svg PUBLIC "-//W3C//DTD SVG 1.1//EN" "http://www.w3.org/Graphics/SVG/1.1/DTD/svg11.dtd">
<svg width="100%" height="100%" viewBox="0 0 400 400" version="1.1" xmlns="http://www.w3.org/2000/svg" xmlns:xlink="http://www.w3.org/1999/xlink" xml:space="preserve" xmlns:serif="http://www.serif.com/" style="fill-rule:evenodd;clip-rule:evenodd;stroke-linejoin:round;stroke-miterlimit:2;">
    <g id="Calque7" transform="matrix(1.13492,0,0,1.13492,-9.7796,-25.4589)">
        <path d="M51.064,101.714C50.231,93.387 44.083,86.204 35.456,84.449C24.85,82.292 14.488,89.151 12.331,99.757C11.831,103.868 12.015,111.681 16.826,120.154C22.455,130.069 34.017,144.448 36.804,149.676C46.582,168.098 55.996,187.028 64.005,206.718C71.996,226.365 78.641,246.353 83.101,266.766C84.863,274.98 86.343,283.135 87.649,291.37C89.628,303.856 91.222,316.288 92.889,328.887L94.658,347.908L95.722,357.934L95.874,347.908L96.732,328.647C96.817,315.873 96.945,303.275 96.708,290.571C96.548,282.038 96.204,273.56 95.582,264.983C94.083,243.194 90.163,221.535 84.996,199.976C79.835,178.445 73.312,157.419 66.225,136.884C64.158,130.856 60.256,100.671 51.064,101.714Z"/>
        <path d="M136.708,69.934C112.045,60.83 92.051,67.528 78.596,87.402C64.986,107.507 58.012,138.027 60.538,156.041C61.082,160.151 61.631,169.367 63.511,176.405C64.459,179.955 65.658,182.881 67.466,184.297C66.121,182.58 65.631,179.612 65.603,176.122C65.544,168.963 67.478,160.08 68.014,156.041C69.788,143.243 78.671,124.61 90.858,111.058C96.597,104.678 103.451,100.637 110.463,99.791C113.195,99.461 114.998,102.148 117.741,104.264C127.215,109.498 139.156,106.056 144.39,96.582C149.624,87.109 146.182,75.168 136.708,69.934Z"/>
        <path d="M144.122,122.763C151.884,116.868 154.216,105.962 149.195,97.319C143.759,87.96 131.747,84.776 122.388,90.212C118.966,92.6 114.07,96.927 110.352,103.9C104.323,115.211 97.944,134.038 95.502,140.86C90.23,155.501 86.257,171.644 84.826,188.187C83.406,204.596 83.959,221.045 87.77,236.285C88.739,240.286 89.937,244.193 91.389,248.057C94.506,256.351 98.434,264.335 101.561,272.554C104.176,279.425 106.884,286.377 110.364,292.913C112.754,297.401 115.41,301.674 118.636,305.564C123.096,310.949 129.216,323.567 135.585,332.652C138.864,337.329 142.157,341.073 145.398,342.439C142.431,340.707 139.675,336.686 137.121,331.724C131.926,321.629 127.584,307.943 123.851,301.838C121.477,297.95 119.671,293.789 118.121,289.476C115.753,282.886 114.182,276.007 112.669,269.221C110.769,260.697 108.043,252.29 106.166,243.692C105.427,240.309 104.905,236.921 104.585,233.483C103.433,220.009 105.252,205.956 108.721,192.209C112.181,178.499 117.756,165.484 124.198,153.903C127.491,148.009 150.294,129.896 144.122,122.763Z" style="fill:rgb(127,197,224);"/>
        <path d="M149.943,340.16L147.676,344.262C148.336,343.542 148.907,342.615 149.386,341.544C149.584,341.102 149.769,340.639 149.943,340.16L155.422,330.247C169.122,311.488 176.516,290.505 180.434,268.465C186.297,235.481 183.69,200.602 180.023,167.653C178.596,154.192 173.141,130.197 164.358,112.37C158.768,101.025 150.818,92.805 142.831,87.942C133.151,83.101 121.361,87.031 116.521,96.712C111.681,106.392 115.61,118.181 125.291,123.022C131.28,125.416 136.302,133.101 140.678,141.3C146.709,152.599 151.423,164.793 153.612,172.684C161.884,203.091 169.702,235.457 168.862,267.291C168.299,288.669 163.976,309.492 153.603,329.11C152.061,332.024 151.275,336.536 149.943,340.16Z" style="fill:rgb(127,197,224);"/>
        <path d="M206.795,77.416C202.745,80.134 199.465,82.575 196.766,85.54C193.712,88.895 191.14,92.427 187.841,96.975C170.383,120.987 163.45,148.111 164.186,176.685C165.172,214.909 178.648,254.696 192,287.961C195.451,296.647 199.617,307.96 204.992,318.031C208.685,324.95 212.877,331.234 217.861,335.603C213.574,330.713 210.261,324.08 207.59,316.863C203.683,306.308 201.23,294.67 199.058,285.716C191.192,252.775 183.461,213.737 188.066,177.905C190.854,156.216 198.957,136.32 215.067,120.312C217.575,117.825 219.582,115.752 221.719,113.872C222.848,112.879 224.268,112.412 225.935,111.65C235.382,106.368 238.764,94.41 233.482,84.963C228.2,75.516 216.242,72.135 206.795,77.416Z" style="fill:rgb(127,197,224);"/>
        <path d="M214.337,108.455C213.968,111.991 223.041,115.707 224.797,117.202C230.546,122.096 235.773,126.999 240.295,132.609C244.822,138.225 248.933,144.129 252.415,150.91C264.062,173.772 268.119,197.777 266.402,221.944C264.595,247.393 257.015,272.539 246.325,296.206C243.21,303.091 241.899,312.306 238.964,320.119C237.668,323.57 236.043,326.704 233.812,329.222C236.377,326.95 238.37,323.962 240.133,320.647C243.971,313.432 246.516,304.693 250.466,298.435C265.01,275.423 276.212,250.319 281.97,224.2C288.028,196.722 287.429,168.508 278.101,140.207C275.086,130.961 271.131,122.68 266.568,114.688C261.971,106.636 256.415,99.279 250.118,91.882C247.801,89.161 242.251,80.607 237.452,76.456C231.749,71.522 225.26,70.867 220.185,70.976C209.418,72.075 201.568,81.708 202.667,92.476C203.411,99.764 208.065,105.716 214.337,108.455ZM223.847,110.019C223.956,110.022 224.063,110.013 224.167,109.994L223.847,110.019Z" style="fill:rgb(127,197,224);"/>
        <path d="M327.691,47.784C312.954,52.235 300.421,62.607 291.713,77.307C281.779,94.077 275.763,115.2 273.202,130.501C267.552,163.608 267.042,197.904 271.173,231.905C275.222,265.238 283.422,297.948 295.61,328.372C298.166,334.76 300.031,341.336 302.55,347.662C303.637,350.394 304.823,353.073 306.275,355.656C305.087,352.961 304.141,350.205 303.357,347.389C301.523,340.804 300.505,334.009 298.709,327.339C290.408,296.443 285.995,263.801 286.096,231.025C286.196,198.892 290.889,167.033 300.153,136.918C303.276,126.879 308.689,113.774 316.087,102.486C321.415,94.355 327.976,87.355 336.443,86.016C346.993,83.601 353.598,73.075 351.183,62.524C348.767,51.974 338.241,45.369 327.691,47.784Z"/>
        <path d="M338.816,125.064C335.041,125.772 331.176,125.959 327.431,127.859C318.955,132.157 309.917,138.616 302.212,148.947C285.736,171.038 272.247,203.261 271.182,219.389C275.707,209.215 288.558,193.208 304.109,179.863C314.36,171.066 325.565,165.028 335.24,163.009C336.177,162.814 337.002,163.472 337.866,163.483C338.177,163.487 337.962,164.218 338.249,164.28C349.071,164.437 357.984,155.778 358.141,144.956C358.297,134.133 349.638,125.22 338.816,125.064Z"/>
        <path d="M197.787,181.225C201.934,189.164 205.562,197.93 207.858,208.484C211.584,225.606 213.404,242.681 216.723,256.922C220.695,240.102 227.671,220.354 232.461,200.693C234.96,190.439 235.733,181.382 236.009,172.429C233.582,161.881 223.048,155.289 212.5,157.716C201.953,160.144 195.36,170.678 197.787,181.225Z" style="fill:rgb(127,197,224);"/>
        <path d="M108.685,203.639L135.531,282.964C137.262,269.105 138.563,256.008 140.558,241.952C142.554,227.89 145.06,215.288 147.855,201.645C147.305,190.836 138.083,182.507 127.273,183.057C116.464,183.608 108.135,192.83 108.685,203.639Z" style="fill:rgb(127,197,224);"/>
    </g>
</svg>
